<?xml version="1.0" encoding="UTF-8"?> <svg xmlns="http://www.w3.org/2000/svg" id="Слой_1" width="512" height="512" viewBox="0 0 512 512"><style>.st0{fill:#b7b7b7}.st1{fill:#4d6da5}</style><path class="st0" d="M469.1 183.1c1.9-1.9 2.9-4.4 2.9-7.1 0-2.6-1.1-5.2-2.9-7.1-1.9-1.9-4.4-2.9-7.1-2.9s-5.2 1.1-7.1 2.9c-1.9 1.9-2.9 4.4-2.9 7.1 0 2.6 1.1 5.2 2.9 7.1s4.4 2.9 7.1 2.9 5.2-1.1 7.1-2.9z"></path><path class="st0" d="M482 44h-34.3V34c0-18.7-15.3-34-34-34-18.8 0-34 15.3-34 34v10h-89.9V34c0-18.7-15.3-34-34-34s-34 15.3-34 34v10H132V34c0-18.7-15.3-34-34-34S64 15.3 64 34v10H30C13.5 44 0 57.5 0 74v407.9c0 16.5 13.5 30 30 30h186.1c5.5 0 10-4.5 10-10s-4.5-10-10-10H30c-5.5 0-10-4.5-10-10V186h402c5.5 0 10-4.5 10-10s-4.5-10-10-10H20V74c0-5.5 4.5-10 10-10h34v34.2c0 18.7 15.3 34 34 34s34-15.3 34-34c0-5.5-4.5-10-10-10s-10 4.5-10 10c0 7.7-6.3 14-14 14s-14-6.3-14-14V64h137.9v34.2c0 18.7 15.3 34 34 34 18.8 0 34-15.3 34-34 0-5.5-4.5-10-10-10s-10 4.5-10 10c0 7.7-6.3 14-14 14s-14-6.3-14-14V64h137.9v34.2c0 18.7 15.3 34 34 34s34-15.3 34-34c0-5.5-4.5-10-10-10s-10 4.5-10 10c0 7.7-6.3 14-14 14s-14-6.3-14-14V64H482c5.5 0 10 4.5 10 10v407.9c0 5.5-4.5 10-10 10H296.1c-5.5 0-10 4.5-10 10s4.5 10 10 10H482c16.5 0 30-13.5 30-30V74c0-16.5-13.5-30-30-30zM84 34c0-7.7 6.3-14 14-14s14 6.3 14 14v10H84V34zm157.9 0c0-7.7 6.3-14 14-14s14 6.3 14 14v10h-28V34zm157.8 0c0-7.7 6.3-14 14-14s14 6.3 14 14v10h-28V34z"></path><path class="st0" d="M256 491.9c-2.6 0-5.2 1.1-7.1 2.9-1.9 1.9-2.9 4.4-2.9 7.1 0 2.6 1.1 5.2 2.9 7.1 1.9 1.9 4.4 2.9 7.1 2.9 2.6 0 5.2-1.1 7.1-2.9 1.9-1.9 2.9-4.4 2.9-7.1 0-2.6-1.1-5.2-2.9-7.1-1.9-1.8-4.5-2.9-7.1-2.9z"></path><path class="st1" d="M360 335.9c0-57.9-47.1-105-105-105s-105 47.1-105 105 47.1 105 105 105 105-47.1 105-105zm-190 0c0-46.9 38.1-85 85-85s85 38.1 85 85-38.1 85-85 85-85-38.1-85-85z"></path><path class="st1" d="M224.1 323.6c1.8 2.5 4.7 4.1 8 4.1 5.5 0 10-4.5 10-10 0-9.9-8.1-18-18-18-10 0-18 8.1-18 18 0 5.5 4.5 10 10 10 3.2 0 6.2-1.6 8-4.1zM280.6 327.7c3.3 0 6.2-1.6 8-4.1 1.8 2.5 4.7 4.1 8 4.1 5.5 0 10-4.5 10-10 0-9.9-8.1-18-18-18-10 0-18 8.1-18 18 0 5.5 4.4 10 10 10zM289.6 357.9c0-5.5-4.5-10-10-10s-10 4.5-10 10c0 7.3-6 13.3-13.3 13.3s-13.3-6-13.3-13.3c0-5.5-4.5-10-10-10s-10 4.5-10 10c0 18.4 14.9 33.3 33.3 33.3s33.3-15 33.3-33.3z"></path></svg> 