<?xml version="1.0" encoding="UTF-8"?> <svg xmlns="http://www.w3.org/2000/svg" xmlns:xlink="http://www.w3.org/1999/xlink" id="Слой_1" width="260" height="259.8" viewBox="0 0 260 259.8"><style>.st1,.st2,.st3{clip-path:url(#SVGID_2_);fill:#3ea3d3}.st2,.st3{fill:#3e68a2}.st3{fill:#fff}</style><defs><path id="SVGID_1_" d="M0 0h260v259.8H0z"></path></defs><clipPath id="SVGID_2_"><use xlink:href="#SVGID_1_" overflow="visible"></use></clipPath><path d="M258.5 150.1c.5-3-.4-6-2.5-8.2l-.5-.6.6-.5c2.4-1.8 3.8-4.6 3.9-7.7v-2.4c0-3-1.3-5.8-3.7-7.8l-.6-.5.6-.6c2.1-2.2 3.1-5.1 2.7-8.1l-.3-2.4c-.4-3-2.2-5.6-4.8-7.1l-.7-.4.5-.6c1.7-2.5 2.3-5.5 1.5-8.4-.2-.8-.4-1.6-.7-2.3-.9-2.9-3-5.2-5.8-6.3l-.7-.3.4-.7c1.4-2.7 1.4-5.8.2-8.6-.3-.7-.7-1.5-1-2.2-1.3-2.7-3.7-4.7-6.7-5.4l-.8-.2.3-.8c1-2.9.6-6-1.1-8.5-.4-.7-.9-1.4-1.3-2-1.7-2.5-4.4-4.1-7.4-4.4l-.8-.1.1-.8c.5-3-.3-6-2.3-8.3-.5-.6-1.1-1.2-1.6-1.8-2-2.2-5-3.4-8-3.2h-.8v-.8c.1-3-1.2-5.9-3.6-7.8-.6-.5-1.3-1-1.9-1.5-2.3-1.9-5.4-2.6-8.3-2l-.8.2-.1-.8c-.4-3-2.1-5.6-4.6-7.2-.7-.4-1.4-.8-2.1-1.3-2.6-1.5-5.8-1.8-8.5-.7l-.7.3-.2-.8c-.8-2.9-2.9-5.3-5.7-6.4-.7-.3-1.5-.6-2.2-.9-2.8-1.1-6-.9-8.6.6l-.7.4-.3-.7c-1.3-2.8-3.7-4.8-6.6-5.5l-2.4-.6c-2.9-.7-6 0-8.4 1.8l-.6.5-.5-.7c-1.7-2.5-4.3-4.2-7.3-4.5-.8-.1-1.6-.2-2.4-.2-3-.2-6 .9-8 3.1l-.5.6-.5-.6c-2-2.3-4.9-3.5-7.9-3.3-.8 0-1.6.1-2.4.1-3 .2-5.7 1.7-7.5 4.2l-.6.6-.6-.5c-2.3-1.9-5.4-2.7-8.3-2.1-.8.2-1.6.3-2.4.5-3 .6-5.4 2.6-6.8 5.3l-.4.7-.7-.4c-2.5-1.5-5.7-1.9-8.5-.9-.8.3-1.5.6-2.3.9-2.8 1.1-5 3.4-5.9 6.2l-.2.8-.7-.3c-2.7-1.1-5.9-1-8.6.4l-2.1 1.2c-2.6 1.5-4.4 4.1-4.9 7l-.1.8-.8-.2c-2.9-.7-6-.1-8.4 1.7-.7.5-1.3 1-2 1.5-2.4 1.9-3.8 4.7-3.8 7.7v.8l-.7-.1c-3-.3-5.9.8-8 2.9-.6.6-1.1 1.2-1.7 1.8-2.1 2.2-3 5.2-2.6 8.2l.1.8h-.8c-3 .2-5.8 1.7-7.5 4.1-.4.6-.9 1.2-1.3 1.9l-.1.1c-1.7 2.5-2.2 5.5-1.3 8.4l.2.8-.8.2c-3 .6-5.5 2.5-6.9 5.2-.4.7-.7 1.4-1.1 2.2-1.3 2.7-1.4 5.8-.1 8.6l.3.7-.7.3c-2.8 1-5 3.3-6 6.1-.3.8-.5 1.5-.8 2.3-.9 2.9-.5 6 1.2 8.5l.4.7-.6.3c-2.7 1.5-4.5 4-5 7-.1.8-.3 1.6-.4 2.4-.5 3 .4 6 2.4 8.2l.5.6-.6.5c-2.4 1.8-3.8 4.6-3.9 7.7v2.4c0 3 1.3 5.8 3.6 7.8l.6.5-.6.6c-2.1 2.2-3.1 5.1-2.7 8.1l.3 2.4c.4 3 2.2 5.6 4.8 7.1l.7.4-.5.6c-1.8 2.5-2.3 5.5-1.5 8.4.2.8.4 1.6.7 2.3.9 2.9 3 5.2 5.8 6.3l.7.3-.4.7c-1.4 2.7-1.5 5.8-.2 8.6.3.7.7 1.5 1 2.2 1.3 2.7 3.7 4.7 6.6 5.4l.8.2-.3.8c-1 2.9-.6 6 1.1 8.5.5.7.9 1.4 1.3 2 1.7 2.5 4.4 4.1 7.4 4.4l.8.1-.1.8c-.5 3 .3 6 2.3 8.3.5.6 1.1 1.2 1.6 1.8 2 2.2 5 3.4 8 3.2l.8-.1v.8c-.1 3 1.2 5.9 3.5 7.8.6.5 1.2 1 1.9 1.5 2.3 1.9 5.4 2.6 8.3 2l.8-.2.1.8c.4 3 2.1 5.6 4.6 7.2.7.4 1.4.8 2.1 1.3 2.6 1.5 5.8 1.8 8.5.7l.7-.3.2.8c.8 2.9 2.9 5.3 5.7 6.5.7.3 1.5.6 2.2.9 2.8 1.1 6 .9 8.6-.5l.7-.4.3.7c1.3 2.8 3.7 4.8 6.6 5.5l2.4.6c2.9.7 6 0 8.4-1.8l.6-.5.4.7c1.6 2.5 4.3 4.2 7.3 4.5.8.1 1.6.2 2.4.2 3 .2 6-.9 8-3.1l.6-.6.5.6c2 2.2 4.9 3.5 7.9 3.3.8 0 1.6-.1 2.4-.1 3-.2 5.7-1.7 7.5-4.2l.5-.7.6.5c2.3 1.9 5.4 2.7 8.3 2.1.8-.2 1.6-.3 2.4-.5 2.9-.6 5.4-2.6 6.8-5.3l.4-.7.7.4c2.5 1.5 5.7 1.9 8.5.9.8-.3 1.6-.6 2.3-.9 2.8-1.1 5-3.3 5.9-6.2l.2-.8.7.3c2.7 1.1 5.9 1 8.6-.4l2.1-1.2c2.6-1.5 4.4-4 4.9-7l.1-.8.8.2c2.9.7 6 .1 8.4-1.7.6-.5 1.3-1 1.9-1.5 2.4-1.9 3.8-4.7 3.8-7.7v-.8l.8.1c3 .3 6-.8 8.1-2.9.6-.6 1.1-1.2 1.7-1.7 2.1-2.2 3-5.2 2.6-8.2l-.1-.8h.8c3-.2 5.8-1.7 7.5-4.1.5-.7.9-1.3 1.5-2.1l.1-.2c1.7-2.5 2.2-5.6 1.3-8.4l-.2-.8.8-.2c3-.6 5.5-2.5 6.9-5.2.3-.7.7-1.4 1-2l.1-.1c1.3-2.7 1.4-5.8.1-8.6l-.3-.7.7-.3c2.8-1.1 5-3.3 6-6.2.3-.8.5-1.5.7-2.3.9-2.9.5-6-1.2-8.5l-.4-.7.7-.4c2.7-1.5 4.5-4 5-7 .3-.5.5-1.3.6-2.1m-29.3 48.7c-22.6 32.5-59.7 51.9-99.3 51.9-24.7 0-48.5-7.5-68.9-21.6C6.4 191-7.2 115.6 30.8 60.9 53.4 28.4 90.5 9.1 130.1 9.1c24.7 0 48.5 7.5 68.9 21.6 54.7 38 68.2 113.4 30.2 168.1" clip-path="url(#SVGID_2_)" fill="#386ea9"></path><path class="st1" d="M134.9 43.7c4.3-4.3 9.5-6.8 15.6-7.8 1.2-.2 2.4-.5 3.5-.9 1.2-.4 2.4-1 3.6-1.5-14.2-14.6-40.3-14.7-54.6-.5 2.6 1.7 5.4 1.9 8.4 2.7 3.8 1 7.6 2.5 10.8 4.9.9.7 1.7 1.4 2.5 2.2.6.6 2.2 1.6 2.4 1.5-.3-1.6-.5-3.3-1-4.9-.9-2.6-3.6-3.1-5.9-3.9.7-2.6 3.5-5.3 5.9-5.5 1.5-.1 2.1 0 1.5-1.7-.6-1.8 2.9-4.8 2.9-4.8s3.4 2.9 2.8 4.7c-.5 1.5.2 1.7 1.5 1.8 2.7.4 5.5 3.3 5.7 5.6-5.5 2-7.4 4.6-6.6 8.7.1.1.8-.4 1-.6M201.6 40.8c-.6-1-2.4-2.4-2.4-2.4-.9-.7-1.9-1.3-3.1-1.7-.1 2.1-.2 6-.1 5.9-.1.1 3.6-1.1 5.6-1.8M124.4 244.5c1.1.5 3.3.6 3.3.6 1.2.1 2.3-.1 3.5-.4-1.2-1.8-3.3-5-3.3-4.9 0-.2-2.3 2.9-3.5 4.7M65.1 34.6c-1.2.3-3 1.6-3 1.6-1 .7-1.8 1.5-2.5 2.5 2 .7 5.7 2 5.7 1.9 0 0-.1-3.9-.2-6M176.3 204.3c-.6 3.9-1.2 8.1-3.7 11.3-2.8 3.5-6.2 4.9-8.8 10.1 20.2 3.8 41.5-11 44.8-30.8-3.1.1-5.5 1.5-8.4 2.6-3.7 1.4-7.6 2.3-11.6 2.2-1.1 0-2.2-.2-3.4-.4-.8-.2-2.7 0-2.8.1 1.2 1.1 2.3 2.4 3.7 3.4 2.3 1.6 4.8.4 7.1-.2 1 2.5.3 6.3-1.6 7.8-1.1.9-1.7 1.2-.3 2.2 1.5 1.1.5 5.2.5 5.2s-4.6 0-5.2-1.8c-.5-1.5-1.2-1.2-2.3-.6-2.4 1.2-6.4.5-8-1.3 3.3-4.8 3.4-8 .3-10.9.1.1-.2.8-.3 1.1M167.4 190.3c-5.3-4.1-11.7-5.1-18.6-5.4.4 3.7 2.6 7.6-2.2 10.1-.2-.7-.4-1.3-.6-1.9-1.1-3.6-2.6-7.1-5-10.1-1.6-2-2.5-2.1-4.4-.3-1.1 1-8.1 7.1-8.1 7.1s-6-5.6-7.5-7.1c-1.8-1.9-3-2-4.5.1-1.7 2.4-3.1 4.4-4.5 7.5-.6 1.3-1.1 2.7-1.7 4.1-2.6-1.4-3.4-3.2-2.6-6.3l.9-3.6c-4.1-.7-11.5.6-16 2.7-5.2 2.4-7.2 7.2-5.1 12.5.8 2 2.2 3.2 4.4 3.4 2.4.3 4.5-1 4.6-2.9.3-2.8-3.2-2.6-4.6-4.1-.5-.5-.6-1.2-.5-1.9.2-1.9 1.4-3.8 3.1-4.8.8-.5 2-1 3-1.1 4.4-.2 7.5 2.6 8 7.3.2 1.3.3 2.8.3 2.8s1.2-.7 1.9-.9c5-1.4 14.7 2.2 15.1 2.5-3.8 5.3-8.1 9.8-15.2 9.9-3.7 0-7.5-.4-11.2-.6-.6 0-1.2-.2-2.3-.3 2.8 4.5 4.3 9.2 3 14.2.7 0 .9-.1 1.3-.2 6-1.5 11.7-3.9 16.2-8.2 5.5-5.1 9.5-11.4 13.2-17.9.3-.5.5-.9.8-1.5 2.5 4.2 4.9 8.4 7.4 12.5 4.8 7.8 11.6 13 20.3 15.8.8.3 1.6.4 2.8.7-1.1-5.3.6-9.6 3.4-14-1.1.1-1.9.2-2.6.2-3.9 0-7.8.2-11.6-.1-6.8-.5-10.6-5.2-14-10.4.2-.3 8.4-2.9 13-2.7 2.3.1 3.9 1 3.9.9 0-.1.3-1.6.7-3.1.9-3.7 4.3-6.1 8.2-5.7 3.1.3 5.5 3.1 5.7 6.6.1 1.4-.2 2.2-1.9 2.1-1.6-.1-3.2 1.3-3.4 2.7-.2 1.5.7 2.6 2 3.3 1.7.8 4.5.2 5.8-1.2 2.8-3.1 2.5-10-.9-12.7M72.8 196.7c-6.1.9-11.8-.2-17.2-2.9-1.1-.6-2.2-1-3.4-1.3-1.2-.4-2.5-.6-3.8-.9 2.6 20.1 23.4 35.6 43.5 32.6-1.1-2.9-3.2-4.7-5.1-7.1-2.5-3-4.6-6.4-5.7-10.2-.3-1.1-.5-2.2-.7-3.3-.1-.8-.8-2.6-1-2.6-.7 1.5-1.6 2.9-2.1 4.5-.8 2.7 1 4.6 2.4 6.6-2.1 1.7-6 2.2-8 .9-1.3-.8-1.7-1.2-2.2.4-.6 1.8-5 2.4-5 2.4s-1.3-4.6.3-5.7c1.3-.9.8-1.5-.1-2.4-1.9-1.9-2.5-5.9-1.2-7.9 5.6 1.6 8.7.7 10.6-3.1h-1.3"></path><path class="st1" d="M133 178.5c-.9-1.5-1.8-3-2.7-4.4-.4-.7-.8-1.4-1.3-2.2l-.1.1v-.1c-1.5 2.2-3 4.8-4.3 6.9-.2.3 0 1.1.3 1.4 1.1 1.1 2.4 2.1 3.7 3.3 1.5-1.2 2.8-2.2 4.1-3.3.8-.4.8-1 .3-1.7M135.3 71.1c-1.6-1.8-3.5-3.5-5.5-5.4-2.1 1.9-4.1 3.6-6 5.3-.9.9-1 1.8-.3 2.9 1.4 2.4 2.6 4.8 3.9 7.2.6 1.1 1.2 2.3 1.9 3.5 0-.1.1-.1.1-.2v.1c2.2-3.6 4.4-7.8 6.3-11.3.4-.4.1-1.6-.4-2.1M215.4 75.8c-.8 3-.2 5.7 0 8.7.2 3.3 0 6.7-.8 10l18.1.1c-3.4-8-9.4-14.9-17.3-18.8M45.7 81.2c.2-1.2.2-2.4.1-3.6 0-1.3-.3-2.5-.4-3.9-8.3 4-14.4 11.5-17.6 20.1l18.9.1c-1.3-4.1-1.6-8.3-1-12.7M125.5 85c-1.8-2.5-3.5-3.1-4.8-3.1-.6.1-1.2.1-1.8.2-.1 0-.3.1-.4.1h-.1c-3.4.5-6.6 1.7-9.7 3-4.1 1.8-8.6 2.6-12.6 5 2 .7 3.8 1.4 5.5 2 2.6 1 5 .2 7.3-1.2.5-.3 1-.7 1.5-1 .7.8 1.3 1.7 2 2.5 2 2 5.2 2.1 7.1 0 .6-.7 1.4-2.3.1-4.1-.5.3-1 .8-1.6.9-.6.2-1.5.2-1.9-.1-.4-.4-.7-1.2-.6-1.9.1-1.4 1.8-2.5 3.5-2.5 3 0 4.7 1.4 5.1 4 .3 2-.5 4.2-2 5.4h5.8c-.3-3.3-.9-7.1-2.4-9.2M135.7 89.2c.3-2.6 2.1-4 5.1-4 1.7 0 3.4 1.1 3.5 2.5.1.6-.2 1.5-.6 1.9-.4.3-1.3.3-1.9.1-.6-.1-1.1-.6-1.6-.9-1.3 1.7-.5 3.4.1 4.1.7.8 1.6 1.3 2.6 1.5h1.7c1-.2 2-.7 2.8-1.5.8-.8 1.4-1.6 2-2.5.6.4 1 .7 1.6 1 2.3 1.4 4.6 2.1 7.3 1.2 1.7-.6 3.5-1.3 5.5-2-4.1-2.4-8.5-3.2-12.6-5-3.1-1.3-6.3-2.5-9.7-3h-.1c-.1 0-.3 0-.4-.1-.6-.1-1.2-.1-1.8-.2-1.4 0-3 .6-4.8 3.1-1.4 2-2 5.6-2.3 8.8h5.4c-1.4-1.2-2.1-3.2-1.8-5M153.1 180.4c6.3.6 16 5.8 16.2 5.7-.9-4.6-1-9.6-.2-14.2.1-.3.1-.7.2-1h-31.7c4.2 4.5 8.8 8.9 15.5 9.5M105.8 170.9h-17c.1 5.8-.8 13.4-.7 13.6 4.2-2.3 8.9-3.9 13.6-4.5 2-.3 3.9-.6 5.8-1.2 8.1-2.5 9.3-6 10.8-7.9h-10.9c-.5.1-1 .1-1.6 0M82 176.7c.7 3-1.3 6.2-4.5 7.4-1.4.5-2.2.5-2.6-1.2-.4-1.5-2.2-2.6-3.7-2.3-1.5.3-2.3 1.4-2.5 2.9-.2 1.8 1.2 4.3 2.9 5.1 3.9 1.8 10.5-.6 12-4.6 1.6-4.3 1.6-8.7.8-13.1h-8.1c2.8.6 5 2.8 5.7 5.8M48 183.6c0 .8.1 1.7.2 2.8 4.7-2.6 9.4-2.4 14.5-1.1 0 0-1.6-6.6 2.5-12.3.7-1 1.6-1.7 2.6-2.2H50.2c-1.5 4.1-2.2 8.3-2.2 12.8M192.2 173.1c6 5.3 2.9 13.8 2.4 15 0 .1-.1.2-.1.3 5.2-1.2 10.2-1.2 14.6 1.5.2-.6.2-.9.2-1.3.4-6.1-.2-12.1-2.8-17.7h-18.7c1.6.4 3.1 1.1 4.4 2.2M173.2 182.8c.7 5.6 4.7 9 10.5 8.7 2.2-.1 3.7-1.1 4.6-3.1 1-2.2.4-4.5-1.4-5.2-2.6-1.1-3.5 2.2-5.4 3.1-.7.3-1.3.2-2-.1-1.8-.8-3.2-2.5-3.7-4.4-.2-.9-.2-2.2-.1-3.1.3-3.5 3.2-6.6 6.5-7.7H174c-.9 3.7-1.3 8.4-.8 11.8"></path><path class="st2" d="M44.8 122.3c-1-.8-2.2-1.4-3.5-1.8-1.3-.4-2.8-.6-4.3-.6h-5.2c-.9 0-1.9-.1-2.8-.2-.8-.1-1.5-.4-2.2-.7v-5.7l16 .1v-5.9l-21.8-.2-.1 31.6 16 .1h.1c1.3 0 2.5-.2 3.8-.5 1.3-.3 2.5-.8 3.6-1.5s2-1.6 2.6-2.8c.7-1.1 1-2.5 1-4.2 0-1.7-.3-3.3-.8-4.5-.6-1.3-1.4-2.4-2.4-3.2m-18.1 2.6c.6.3 1.3.5 2 .6 1 .1 2 .2 3 .2h5.2c.7 0 1.4.1 2 .2.6.1 1.2.3 1.7.6s.8.6 1.1 1.1c.3.5.4 1.1.4 1.8s-.1 1.3-.4 1.8c-.3.5-.7.8-1.1 1.1-.5.3-1 .5-1.6.6-.6.1-1.2.2-1.7.2H26.7v-8.2zM60.5 106.9l1.9 4.4L48.9 139h6.3l1-1.8c.1-.2.3-.4.7-.8.4-.3 1-.6 1.6-.9.7-.3 1.6-.5 2.6-.7 1-.2 2.2-.3 3.4-.3h8.8l2 4.4h6.5l-15.1-32.2-6.2.2zm10.3 21.9h-4.6c-2.1 0-3.8.2-5.1.5-.4.1-.7.2-1 .3l5.2-11.2 5.5 10.4zM106.5 107.6l-.1.5c-.4 1.5-.9 3.3-1.6 5.4-.6 1.8-1.2 3.7-1.9 5.7-.7 1.8-1.4 3.6-2.3 5.4-.6 1.4-1.3 2.7-1.9 3.8-.9-1.1-1.7-2.2-2.6-3.3-1.1-1.4-2.1-2.9-3-4.5-.9-1.6-1.8-3.5-2.6-5.5s-1.5-4.4-2-7l-.1-.6h-6.3l.2.9c.6 3 1.4 5.7 2.3 8.2.9 2.5 2 4.7 3.1 6.8 1.1 2 2.4 3.9 3.8 5.6 1.2 1.5 2.5 2.9 3.8 4.1-.2.2-.4.4-.7.5-.5.2-1 .3-1.6.3-1 0-1.8-.1-2.3-.3-.5-.2-1.1-.5-1.7-1l-.7-.6-2.3 5.1.3.3c.3.3.8.6 1.3.9.5.3 1.1.5 1.7.7.6.2 1.2.3 1.9.4.6.1 1.2.2 1.8.2.7 0 1.5-.1 2.2-.2.8-.1 1.5-.4 2.2-.7.7-.3 1.4-.8 2.1-1.4.7-.6 1.3-1.4 2-2.3 1.4-2 2.6-4.1 3.8-6.2 1.1-2.1 2.1-4.4 3.1-6.6.9-2.3 1.8-4.6 2.5-6.8s1.4-4.5 2-6.8l.2-.9H106.5zM140.2 110.2c-.8-.8-1.9-1.4-3-1.9-1.2-.4-2.5-.6-3.9-.7l-16.2-.1-.1 31.4v.2h5.8l.1-11.9c.7-.3 1.5-.6 2.2-.7.9-.1 1.9-.2 2.8-.2h5.4c1.4 0 2.7-.2 3.8-.6 1.2-.4 2.2-1.1 3.1-1.9.9-.8 1.5-1.8 2-3 .5-1.1.7-2.4.7-3.9 0-1.4-.2-2.7-.7-3.9-.5-.9-1.2-1.9-2-2.8m-17.4 3.4h10.4c1.3 0 2.2.3 2.9.8.6.5.9 1.4.9 2.7 0 2.5-1.2 3.6-3.8 3.6h-5.4c-1 0-2 .1-3 .2-.7.1-1.3.3-2 .6v-7.9zM171 129.9c-1.1 1.4-2.4 2.4-4 3.2-1.5.8-3.2 1.2-5.1 1.2-1.5 0-2.9-.3-4.3-.8s-2.6-1.3-3.6-2.2c-1-.9-1.8-2.1-2.4-3.4-.6-1.3-.9-2.7-.9-4.2 0-1.6.3-3.1.9-4.4.6-1.3 1.4-2.5 2.4-3.4 1-1 2.2-1.7 3.6-2.2 1.3-.5 2.8-.8 4.4-.8 1.7 0 3.3.3 4.7.9 1.4.6 2.7 1.5 3.7 2.5l.5.5 3.8-4.4-.5-.5c-1.5-1.5-3.4-2.8-5.4-3.7-2-.9-4.4-1.4-6.7-1.4-2.2 0-4.4.4-6.4 1.2-2 .8-3.9 1.9-5.4 3.4-1.6 1.4-2.8 3.2-3.7 5.1-.9 2-1.4 4.2-1.4 6.5s.4 4.6 1.3 6.7c.9 2.1 2.1 3.9 3.6 5.4 1.5 1.5 3.3 2.7 5.4 3.6 2 .9 4.3 1.3 6.7 1.3h.1c2.5 0 4.9-.5 7.1-1.5 2.2-1 4.1-2.4 5.7-4.2l.4-.4-3.6-4.9-.9.9zM193.9 107.5h-6.4l1.9 4.4-13.4 27.3-.1.3h6.3l1-1.8c.1-.2.3-.4.7-.8.4-.3 1-.6 1.6-.9.7-.3 1.6-.5 2.6-.7 1-.2 2.2-.3 3.4-.3h8.8l2 4.4h6.5l-15-32.1.1.2zm3.9 21.8h-4.6c-2.1 0-3.7.2-5 .5-.3.1-.7.2-1 .3l5.3-11.2 5.3 10.4zM240 133.9h-.5c-.4 0-.9 0-1.4-.1-.3-.1-.6-.2-.9-.4-.4-.2-.8-.6-1.2-.9-.4-.4-.8-.9-1.3-1.7l-5.1-7.7 10.5-14.9H233l-7.8 11.4c-.8.4-1.6.7-2.4.8-.9.1-1.8.2-2.7.2h-1.4v-12.5h-5.8l-.1 31.4v.2h5.8l.1-13.3h1.9c.7 0 1.5-.1 2.2-.2.6-.1 1.2-.2 1.8-.4l5.4 8.8c.7 1.2 1.4 2.1 2.1 2.8.7.7 1.4 1.2 2.1 1.6.6.3 1.4.6 2.1.7.7.1 1.4.1 2.1.1h2.3v-5.9h-.7zM38.7 155c.1 0 .1 0 0 0-1.1-.8-2.1-1.8-3.2-2.5-2.1-1.3-4.3-2-6.7-2.1-1 0-2 .2-3 .8 2.5 1.2 4.9 2.6 7.2 3.8-2.3 1.2-4.7 2.5-7.2 3.8 1 .5 2 .7 3 .8 2.5 0 4.7-.8 6.7-2.1 1.1-.7 2.2-1.7 3.2-2.5.1 0 .1 0 0 0"></path><path class="st2" d="M27.8 155c-1.4-.8-2.8-1.6-4.2-2.3-.2-.1-.7 0-.9.2-.7.6-1.3 1.4-2 2.1.7.7 1.3 1.5 2 2.1.2.2.7.3.9.2 1.4-.7 2.8-1.5 4.2-2.3M222.1 155c1.1-.8 2.1-1.8 3.2-2.5 2.1-1.3 4.3-2 6.7-2.1 1 0 2 .2 3 .8-2.5 1.2-4.9 2.6-7.2 3.8 2.3 1.2 4.7 2.5 7.2 3.8-1 .5-2 .7-3 .8-2.5 0-4.7-.8-6.7-2.1-1.1-.7-2.2-1.7-3.2-2.5"></path><path class="st2" d="M233 155c1.4-.8 2.8-1.6 4.2-2.3.2-.1.7 0 .9.2.7.6 1.3 1.4 2 2.1-.7.7-1.3 1.5-2 2.1-.2.2-.7.3-.9.2-1.4-.7-2.7-1.5-4.2-2.3"></path><path class="st3" d="M142.2 184.5c1 1.7 4 7.2-1.9 6.8.1 0-.3 1.2 1.2 2.8.7.7 1.5 1.3 3 1.4 3.7.1 5.4-4.5 4.6-6.1-1.9-2.2-5-2.8-6.9-4.9M115 184.5c-1 1.7-4 7.2 1.9 6.8-.1 0 .3 1.2-1.2 2.8-.7.7-1.5 1.3-3 1.4-4.7.1-6-4.6-5.2-6.2 1.9-2.2 5.6-2.7 7.5-4.8"></path><path class="st1" d="M194.4 78.7c3.1 2.1 5.9 4.6 8.8 6.9.5.4.9.8 1.7 1.6.4-5.3 1.9-9.9 5.8-13.3-.6-.4-.9-.4-1.2-.6-5.8-2.2-11.8-3.5-18-2.6-7.5 1-14.4 3.8-21.2 7-.5.2-1 .5-1.5.7.4-4.9.9-9.6 1.3-14.4.7-9.1-1.9-17.2-7.3-24.5-.5-.7-1.1-1.3-1.9-2.2-2.2 4.9-6.1 7.5-11 9.4 1 .6 1.6.9 2.2 1.3 3.2 2.2 6.4 4.3 9.4 6.7 5.3 4.3 5.6 10.3 5.3 16.5-.3.1-8.5-2.4-12.2-5.2-1.8-1.4-2.6-3.1-2.6-3-.1.1-1.2 1.1-2.3 2.1-2.9 2.5-7.1 2.5-10 0-2.4-2-2.7-5.7-.8-8.6.8-1.2 1.5-1.7 2.8-.6 1.2 1 3.4.8 4.3-.3 1-1.1 1-2.5.3-3.8-.9-1.6-3.6-2.7-5.4-2.4-4.2.9-8.1 6.7-6.9 10.7 1.9 6.4 6.6 10.9 12 15.1 1.6-2.9 2.2-6.8 6.3-7 .4-.1.8-.1 1.2 0H153.8c.3.1.5.2.8.3.1 0 .2.1.2.1 1.9.8 3.7 1.9 5.3 3.2 2.2 1.6 4.7 2.8 6.7 4.8-1.3.1-2.4.3-3.5.4-1.7.2-3-.6-4.1-1.8l-.8-.8c-.5.4-1 .8-1.6 1.2-1.5.9-3.4.5-4.2-1.1-.3-.5-.5-1.6.5-2.4.3.3.5.6.8.8.3.2.9.4 1.1.2.3-.2.6-.6.6-1 .1-.8-.7-1.7-1.7-2-1.7-.4-2.9.9-3.5 2.3-.9 2.7-1 4.6.5 7.3 1.6 2.8 18.9 8.9 18.9 8.9s-4.9 3.6-6.4 5.7l42.1.2v-.2c-.6-3.2-7-3.6-13.3-4.6-2.3-.3-6.3-.4-4.6 3.5 0-.1-2.5-.1-2.8-.2-.8-.3-1.7-.8-2.1-2-.6-2 .7-3.3 2.1-3.7-1.6-.9-3-2.1-4.2-3.3-2.6-2.8-4.5-5.7-4.6-6 6.4-2.2 12.5-3.4 18.4.7M121.4 50c-1.9-1.2-3.7-1.2-5.6-.2-2.1 1.2-3 3.4-2 5.1 1.5 2.4 4.1.2 6.2.6.7.1 1.2.6 1.6 1.2 1 1.6 1.2 3.9.4 5.7-.4.9-1 2-1.8 2.6-3.4 2.7-7.6 2.3-10.9-1.1-.9-.9-1.9-2.1-1.9-2.1s-.5 1.3-.9 1.8c-3.1 4.1-12.9 7.7-13.4 7.6-.2-6.5.4-13.4 6.1-17.7 3-2.2 6.2-4.1 9.4-6.2.5-.3 1.1-.6 2-1.1-5-2-9-4.8-11-9.6-.5.4-.7.7-.9 1-3.9 4.8-7 10-8.1 16.1-1.3 7.3-.8 14.7.2 22.1.1.5.1 1 .2 1.6-4.5-1.9-8.9-3.9-13.4-5.8-8.3-3.4-16.7-3.6-25.1-.8-.8.3-1.5.6-2.6 1.1 4 3.6 5.3 8.1 5.7 13.2.8-.7 1.3-1.3 1.8-1.7 3-2.3 5.9-4.7 9-6.7 5.6-3.6 11.3-2 17 .2l-.2.4c-.9 1.3-6.1 8.6-12.5 10.4.7.6 1 1.6.7 2.9-.3 1.2-1.2 1.7-2.1 2-.3.1-2.8.1-2.8.2 1.6-3.7-2.1-3.8-4.4-3.5-4.4.7-8 1.5-8.5 3.9-.1.3-.1.5-.1.7l32.9.1v-.1c.1 0 .1 0 .2.1h8.3c.1-1.5-6.2-5.2-6.2-5.2s17.7-6.4 19.6-8.1c1.9-1.7 2.8-3.1 2.5-6.4 0-.4-.1-.7-.2-1.1-.1-.2-.1-.3-.2-.4-.6-1.5-1.8-3-3.6-2.6-1 .2-1.8 1.1-1.7 2 .1.4.3.9.6 1 .3.1.8 0 1.1-.2.3-.2.6-.5.8-.8 1 .8.8 1.9.5 2.4-.8 1.5-2.7 2-4.2 1.1-.5-.3-1-.8-1.6-1.2-.3.3-.5.6-.8.8-1.1 1.1-2.4 1.9-4.1 1.8-1.1-.1-2.2-.2-3.5-.4 2.1-2 4.6-3.1 6.7-4.8 1.6-1.3 3.4-2.4 5.3-3.2.1 0 .2-.1.2-.1.3-.1.7-.3 1-.4.6-.1 1.3-.1 2.1.3 1.1.3 1.9 1 2.7 2.7.5 1.1.9 2.3 1.4 3.4 3.7-1.9 8.9-7.3 11.3-11.6 3-4.9 1.7-9.9-3.2-13"></path><path class="st1" d="M70.3 40.5c1.9 2.8 4.6 3.4 8.1 1.8 1.9-.9 3.2-3.1 2.6-4.7-.3-.8-1.1-1.6-1.8-1.8-.6-.2-1.6.4-2.2.9-.6.5-.9 1.3-1.3 1.9-2.5-1.3-2.5-3.6-2.2-4.7.9-3.4 4.5-5.1 8-4 1.3.4 2.5 1.1 3.8 1.7.4-.7.8-1.4 1.2-2 1.8-2.8 4.1-5 7.6-5.4 2.3-.3 4.7-.5 7.4-.8-3.3 4.9-7.9 8.4-11.6 12.7-3.8 4.4-7.9 8.4-13.3 11.2 1.2.9 5 3.3 5.8 4-.7.5-3.4 2.2-3.5 2.4 0 0 .4.3.7.7 1.2 1.4 2.4 2.8 3.7 4.4.1-.5.3-.8.3-1.1 1.2-6.8 3.6-13.1 7-19.1 14.4-25 50.2-30 71.1-9.9 8.4 8.1 12.8 18.3 14.8 29.5.1.6.2 1.1.4 1.8 1-1.2 1.8-2.3 2.7-3.2 1.9-1.9 1.9-1.9-.5-3.1-.5-.2-1.1-.8-1.1-1.2 0-.5.5-1.1 1-1.4.9-.5 1.9-.8 2.9-1.2.6-.3 1.2-.8 2.2-1.4-5.7-2.9-9.7-6.9-13.3-11.4-3.6-4.4-8.2-8-11.3-13.1 2.3.3 4.2.7 6.1.8 4 .3 6.8 2.3 8.8 5.6.4.7.8 1.5 1.2 2.2 1.5-.6 2.8-1.3 4.1-1.6 3.4-.9 6.6.9 7.6 4.3.7 2.4.1 3.5-2.4 4.6-.2-.4-.5-.9-.8-1.3-1-1.7-2.1-2.1-3.4-1.5-1.2.6-1.7 2.3-1.1 3.8 1.2 3 5.9 4.5 8.6 2.9 4.1-2.5 4.6-8.6.9-11.7-1.2-1-2.4-1.9-3.8-2.7-3.3-1.9-6.7-3.7-10.2-5.3-14.1-5.9-29.2-9-44.7-9-21.6 0-42.5 6-60.4 16.9-1.6 2.4-1.4 5.9.3 8.5M123.9 237.4c.2-3.3-1.7-5.5-5.4-6.2-2.1-.4-4.5.6-4.9 2.3-.2.8-.1 1.9.4 2.5.4.5 1.5.6 2.3.6.8 0 1.5-.5 2.2-.7 1.2 2.5-.2 4.4-1.1 5.1-2.8 2.2-6.7 1.4-8.8-1.6-.8-1.1-1.3-2.4-2-3.6-.8.3-1.5.7-2.2.9-3.1 1.2-6.3 1.6-9.4-.2-2-1.2-4.1-2.4-6.4-3.8 5.6-2 11.4-2.1 17-3.3 5.7-1.3 11.4-2.1 17.4-1.2-.4-1.4-2-5.6-2.2-6.6.9 0 4 .2 4.3.1 0 0-.1-.4-.2-1-.1-1.8-.2-3.7-.3-5.7-.4.3-.7.5-.9.7-5 4.7-10.8 8.4-17.2 11.2-26.7 11.6-58.5-5.5-63-34-1.2-7.7-.5-15 1.7-22H40c.8 3.2 1.1 6.5 1.2 9.8.2 5.6 1.7 11.2 1.2 17.2-1.7-1.6-3-3-4.4-4.2-3.1-2.6-4.1-5.8-3.6-9.7.1-.8.2-1.7.3-2.4-1.5-.4-3-.6-4.3-1.1-3.3-1.2-4.8-4.7-3.5-7.9.1-.4.3-.7.4-1 .3 2.3 2.2 4 4.5 4 1.1 0 2-.4 2.8-1 .8-.4 1.4-1.2 1.7-2.1.1-.5.2-1 .1-1.5H23.3c-.2.8-.2 1.6-.1 2.4 8.3 20.6 22.4 38.3 41.1 51.2 16 11 34.1 17.8 53.2 19.9 3.4-.1 6.2-3.5 6.4-7.1M235.6 174.2c.3-1.1.2-2.2-.1-3.3h-13.1c0 .4.1.7.2 1.1 0 .2.1.4.1.6.3 1.2 1.3 2.1 2.3 2.4.6.3 1.3.5 2 .5 2.4 0 4.3-1.8 4.5-4.1.2.4.5.8.7 1.3 1.2 3.2-.2 6.6-3.5 7.9-1.3.5-2.8.7-4.3 1.1l.3 2.4c.5 3.8-.5 7.1-3.6 9.7-1.4 1.2-2.7 2.6-4.4 4.2-.5-5.9 1-11.5 1.2-17.2.1-3.4.5-6.7 1.3-10.1h-5.3c2.3 7.2 3 14.6 1.8 22.3-4.6 28.5-36.3 45.6-63 34-6.4-2.8-12.1-6.4-17.2-11.2-.2-.2-.5-.4-.9-.7-.1 2-.2 3.8-.3 5.7 0 .6-.2 1-.2 1 .3.1 3.4-.1 4.3-.1-.2 1-1.8 5.2-2.2 6.6 6-.9 11.8-.1 17.4 1.2 5.5 1.3 11.3 1.3 16.9 3.3-2.4 1.4-4.4 2.6-6.4 3.8-3.1 1.8-6.2 1.4-9.4.2-.7-.3-1.4-.6-2.2-.9-.7 1.2-1.2 2.5-2 3.6-2.1 3-6 3.8-8.8 1.6-.9-.7-2.3-2.6-1.1-5.1.7.3 1.5.7 2.2.7.8 0 1.9-.1 2.3-.6.5-.6.6-1.7.4-2.5-.5-1.7-2.8-2.7-4.9-2.3-3.7.7-5.6 2.9-5.4 6.2.2 3.4 2.6 6.6 5.6 6.9 27.9-2.5 53.8-14.9 73-34.8.3-.4.7-.7 1-1.1.1-.1.2-.2.3-.4 8.1-8.8 14.4-18.8 19-29.8.7-1.1 1.2-2.6 1.5-4.1M207.3 45.3c-2.7-2-7-.8-9.3 2.1-2.1 2.6-1.9 5.4.8 8.2 1.4 1.5 4 2.1 5.3 1 .6-.5 1.2-1.5 1.2-2.3 0-.6-.9-1.4-1.6-1.8-.6-.4-1.5-.5-2.3-.7.4-2.7 2.7-3.5 3.9-3.5 3.6-.2 6.4 2.7 6.3 6.3 0 1.3-.3 2.7-.5 4.1.8.2 1.6.3 2.3.5 3.3.8 6.1 2.3 7.5 5.5 1 2.1 1.9 4.3 3 6.7-5.8-1.6-10.5-4.8-15.8-7-5.4-2.2-10.5-4.8-14.9-9-.5 1.4-1.6 5.7-2 6.6-.7-.5-3.1-2.5-3.4-2.5 0 0-.2.4-.5.9-1 1.5-2 3.1-3 4.8.5 0 .8 0 1.2-.1 6.9-1 13.7-.7 20.6.7 16 3.3 27.9 14.7 33.2 28.7h1.1c-5.1-15.8-13.6-30.2-24.9-42.3-2.6-2.4-5.4-4.7-8.2-6.9M35.5 64.6c-6.4 9.1-11.3 18.9-14.7 29.2h.7C24.8 83.3 31.8 74 42.2 68.5c10-5.3 20.8-6.3 32-4.6.6.1 1.1.1 1.8.2-.9-1.3-1.6-2.4-2.3-3.6-1.2-2.3-1.2-2.3-3-.5-.4.4-1.1.8-1.4.6-.5-.2-.9-.8-1-1.4-.2-1-.2-2-.3-3.1-.1-.7-.4-1.4-.6-2.5C63 58 58 60.5 52.8 62.5c-5.2 2-9.8 5.1-15.5 6.5 1-2.1 1.8-3.7 2.5-5.4 1.4-3.7 4.1-5.6 7.8-6.4.8-.2 1.6-.3 2.4-.5-.1-1.6-.4-3-.4-4.4.1-3.5 2.8-5.9 6.2-5.8 2.5.1 3.3 1 3.7 3.7-.5.1-1 .2-1.4.3-1.9.4-2.6 1.3-2.4 2.7.3 1.3 1.7 2.3 3.3 2.2 3.1-.2 5.9-4.1 5.1-7.1-1-3.9-5.3-6.2-8.9-5.3-7.4 6.3-14 13.5-19.7 21.6"></path><path class="st2" d="M47.3 158.6v-6.8H43v6.8h-1.1v-7.9h6.5v7.9z"></path><path class="st2" d="M48.7 158.8H47v-6.7h-3.7v6.7h-1.7v-8.4h7.1v8.4zm-1.2-.5h.6v-7.4h-6v7.4h.6v-6.7h4.8v6.7zM50.7 158.6v-7.9h4.1c.3 0 .7.1 1 .2.3.1.5.3.7.4.2.2.4.4.5.7.1.3.2.6.2.9 0 .4-.1.7-.2.9-.1.3-.3.5-.5.7-.2.2-.4.4-.7.5-.3.1-.6.2-.9.2h-1.4c-.3 0-.5 0-.8.1-.3 0-.5.1-.7.3v3h-1.3zm4.1-4.6c.8 0 1.2-.4 1.2-1.1 0-.4-.1-.7-.3-.8-.2-.2-.5-.2-.9-.2h-2.9v2.5c.2-.1.5-.2.7-.3.3 0 .5-.1.8-.1h1.4z"></path><path class="st2" d="M52.2 158.8h-1.7v-8.4h4.3c.4 0 .7.1 1 .2.3.1.6.3.8.5.2.2.4.5.5.8.1.3.2.7.2 1 0 .4-.1.7-.2 1-.1.3-.3.6-.5.8-.2.2-.5.4-.8.5-.3.1-.7.2-1 .2h-1.4c-.2 0-.5 0-.7.1-.2 0-.3.1-.5.2v3.1zm-1.2-.5h.6v-2.9l.1-.1c.3-.1.5-.2.8-.3.3 0 .5-.1.8-.1h1.4c.3 0 .6 0 .9-.1.2-.1.5-.2.6-.4.2-.2.3-.4.4-.6.1-.2.1-.5.1-.9 0-.3 0-.6-.1-.8-.1-.2-.2-.4-.4-.6-.2-.2-.4-.3-.6-.4-.3-.1-.5-.1-.9-.1H51v7.3zm.6-3.5v-3.3h3.2c.4 0 .8.1 1 .3.3.2.4.6.4 1.1 0 .9-.5 1.4-1.4 1.4h-1.4c-.2 0-.5 0-.7.1-.2 0-.4.1-.6.2l-.5.2zm.6-2.7v1.8c.1-.1.3-.1.4-.1.3 0 .5-.1.8-.1h1.4c.6 0 .9-.3.9-.9 0-.3-.1-.5-.2-.6-.1-.1-.4-.2-.7-.2h-2.6zM66.8 154.6c0 .6-.1 1.1-.3 1.6-.2.5-.5.9-.9 1.3s-.8.7-1.4.9c-.5.2-1.1.3-1.6.3-.6 0-1.2-.1-1.7-.3-.5-.2-1-.5-1.3-.9-.4-.4-.7-.8-.9-1.4-.2-.5-.3-1.1-.3-1.7 0-.6.1-1.1.3-1.6.2-.5.5-.9.9-1.3s.8-.6 1.4-.9c.5-.2 1.1-.3 1.6-.3.6 0 1.1.1 1.7.3.5.2 1 .5 1.4.9.4.4.7.8.9 1.3.1.7.2 1.2.2 1.8m-1.2 0c0-.4-.1-.8-.2-1.2-.2-.4-.4-.7-.7-.9-.3-.3-.6-.5-1-.6-.4-.1-.8-.2-1.2-.2-.4 0-.8.1-1.2.2-.4.1-.7.4-1 .6-.3.3-.5.6-.7 1-.2.4-.2.8-.2 1.2 0 .4.1.8.3 1.2.2.4.4.7.7.9.3.3.6.5 1 .6.4.1.8.2 1.2.2.4 0 .8-.1 1.2-.2.4-.2.7-.4 1-.6.3-.3.5-.6.7-1 0-.4.1-.8.1-1.2"></path><path class="st2" d="M62.5 159c-.6 0-1.2-.1-1.8-.3-.5-.2-1-.6-1.4-1-.4-.4-.7-.9-1-1.4-.2-.6-.3-1.1-.3-1.8 0-.6.1-1.2.4-1.7.2-.5.6-1 1-1.4.4-.4.9-.7 1.4-.9 1.1-.4 2.4-.4 3.5 0 .5.2 1 .5 1.4.9.4.4.7.9 1 1.4.2.5.4 1.1.4 1.8 0 .6-.1 1.2-.4 1.7-.2.5-.6 1-1 1.4-.4.4-.9.7-1.4.9-.6.3-1.2.4-1.8.4m0-8.3c-.5 0-1 .1-1.5.3-.5.2-.9.5-1.3.8-.4.3-.7.7-.9 1.2-.2.5-.3 1-.3 1.5 0 .6.1 1.1.3 1.6.2.5.5.9.8 1.3.4.4.8.6 1.3.8.9.4 2.1.4 3.1 0 .5-.2.9-.5 1.3-.8.4-.3.7-.8.9-1.2.2-.5.3-1 .3-1.5 0-.6-.1-1.1-.3-1.5-.2-.5-.5-.9-.9-1.2-.4-.4-.8-.6-1.3-.8-.4-.4-.9-.5-1.5-.5m0 7.1c-.5 0-.9-.1-1.3-.2-.4-.2-.8-.4-1.1-.7-.3-.3-.6-.6-.8-1-.2-.4-.3-.8-.3-1.3s.1-.9.3-1.3c.2-.4.4-.8.7-1 .3-.3.7-.5 1.1-.7.8-.3 1.8-.3 2.6 0 .4.2.8.4 1.1.7.3.3.6.6.7 1 .2.4.3.8.3 1.3s-.1.9-.3 1.3c-.2.4-.4.7-.7 1-.3.3-.7.5-1.1.7-.3.2-.7.2-1.2.2m0-5.9c-.4 0-.8.1-1.1.2-.3.1-.6.3-.9.6-.3.2-.5.5-.6.9-.1.3-.2.7-.2 1.1 0 .4.1.7.2 1.1l.6.9.9.6c.7.3 1.5.3 2.2 0 .3-.1.6-.3.9-.6.3-.2.5-.5.6-.9.2-.3.2-.7.2-1.1 0-.4-.1-.8-.2-1.1-.1-.3-.4-.6-.6-.9l-.9-.6c-.3-.2-.7-.2-1.1-.2M74.4 159.8v-1.2h-6.1v1.2h-1.2v-2.4h1.2c.6-.8 1.1-1.6 1.5-2.5.4-.9.6-1.9.8-3.1h-.9l-.5-1.2h5.6v6.7h.7v2.4h-1.1zm-.7-2.4v-5.6h-2c0 .4-.1.9-.3 1.4-.1.5-.3 1-.4 1.5-.2.5-.4 1-.6 1.4-.2.5-.5.9-.7 1.3h4z"></path><path class="st2" d="M75.8 160h-1.7v-1.2h-5.6v1.2h-1.7v-2.9h1.3c.6-.7 1-1.5 1.4-2.3.3-.8.6-1.7.8-2.7h-.7l-.7-1.7h6.3v6.7h.7v2.9zm-1.2-.5h.6v-1.8h-.7V151h-5l.3.6h1l-.1.3c-.2 1.1-.5 2.2-.8 3.1-.4.9-.9 1.8-1.5 2.6l-.1.1h-1v1.8h.7v-1.2h6.7v1.2zm-.6-1.8h-4.8l.3-.4c.3-.4.5-.8.7-1.2.2-.5.4-.9.6-1.4.2-.5.3-1 .4-1.4.1-.5.2-.9.3-1.3v-.2H74v5.9zm-3.8-.6h3.3v-5H72c-.1.4-.1.8-.2 1.2-.1.5-.3 1-.5 1.5l-.6 1.5c-.2.3-.4.6-.5.8M78.1 152.5c.2.5.4 1 .7 1.5.3.4.5.8.8 1.2.3.4.6.7.9 1.1l.6-1.2c.2-.5.4-.9.6-1.4.2-.5.4-1 .5-1.5.2-.5.3-1 .4-1.4h1.3c-.2.6-.3 1.2-.5 1.8l-.6 1.8c-.2.6-.5 1.2-.8 1.7-.3.6-.6 1.1-1 1.6-.2.2-.3.4-.5.6-.2.1-.3.3-.5.3-.2.1-.3.1-.5.2h-1c-.2 0-.3-.1-.5-.1s-.3-.1-.4-.2c-.1-.1-.2-.1-.3-.2l.4-1c.2.1.3.2.5.3.2.1.4.1.7.1.2 0 .3 0 .5-.1.1-.1.3-.2.3-.3-.4-.3-.7-.7-1.1-1.2-.3-.4-.7-.9-1-1.4-.3-.5-.6-1.1-.8-1.7-.2-.6-.4-1.3-.6-2.1h1.3c.2.5.4 1.1.6 1.6"></path><path class="st2" d="M78.9 158.9h-.5c-.2 0-.3-.1-.5-.1-.2-.1-.3-.1-.5-.2s-.3-.2-.4-.3l-.1-.1.7-1.5.3.2c.1.1.3.2.4.3.1 0 .3.1.6.1.1 0 .3 0 .4-.1 0 0 .1 0 .1-.1-.3-.3-.6-.7-.9-1-.4-.4-.7-.9-1-1.5-.3-.5-.6-1.1-.8-1.8-.2-.6-.5-1.4-.6-2.1l-.1-.3h1.8v.2c.1.7.3 1.3.5 1.8s.4 1 .7 1.4c.2.4.5.8.8 1.2.2.3.4.5.6.8.1-.3.3-.6.4-.9.2-.5.4-.9.6-1.4.2-.5.4-1 .5-1.5.2-.5.3-1 .4-1.4l.1-.2h1.9l-.1.3c-.2.6-.3 1.2-.5 1.8l-.6 1.8c-.2.6-.5 1.2-.8 1.7-.3.6-.6 1.1-1 1.6-.2.3-.3.5-.5.6-.2.2-.4.3-.6.4-.2.1-.4.2-.6.2-.3.1-.5.1-.7.1m-1.3-.8c.1 0 .1 0 0 0 .2.1.3.2.5.2.1 0 .3.1.4.1.3.1.6 0 .9 0 .2 0 .3-.1.5-.2.1-.1.3-.2.4-.3.1-.1.3-.3.4-.5.3-.5.7-1 .9-1.6.3-.6.5-1.1.8-1.7.2-.6.4-1.2.6-1.7.1-.5.3-.9.4-1.4h-.8c-.1.4-.2.8-.4 1.2-.2.5-.3 1-.5 1.5l-.6 1.5c-.2.5-.4.9-.7 1.3l-.2.3-.2-.3c-.3-.3-.6-.7-.9-1.1-.3-.4-.6-.8-.8-1.2-.3-.4-.5-1-.7-1.5-.2-.5-.4-1.1-.5-1.7h-.7c.2.6.3 1.2.5 1.8.2.6.5 1.2.8 1.7.3.5.6 1 .9 1.4.3.4.7.8 1.1 1.1l.2.1-.1.2c-.1.2-.3.4-.5.4-.2.1-.4.1-.6.1-.3 0-.6 0-.8-.1-.1 0-.2-.1-.3-.1v.5zM86.5 158.6h-1.2v-7.9h1.2v3.3h.5c.2 0 .5 0 .8-.1s.5-.1.7-.3l2-3h1.4l-2.6 3.7 1.4 2.1c.1.2.3.4.4.5l.3.3c.1.1.2.1.3.1h.5v1.2h-.9c-.2 0-.3-.1-.5-.2s-.3-.2-.5-.4-.3-.4-.5-.7l-1.5-2.4c-.2.1-.4.1-.6.2s-.4 0-.6 0h-.7v3.6z"></path><path class="st2" d="M92.6 158.8H91.3c-.2 0-.4-.1-.6-.2-.2-.1-.4-.2-.6-.4-.2-.2-.4-.4-.6-.7l-1.4-2.2c-.1 0-.3.1-.4.1h-1v3.5H85v-8.4h1.7v3.3h.3c.2 0 .5 0 .7-.1.2 0 .4-.1.6-.2l2-3h2l-2.8 4 1.3 2c.1.2.2.3.3.4.1.1.2.2.3.2.1 0 .1.1.2.1h.8v1.6zm-4.1-4.2l1.6 2.6c.2.3.3.5.5.6.1.1.3.3.4.3.1.1.3.1.4.1h.6v-.6h-.3c-.1 0-.3-.1-.4-.2-.1-.1-.3-.2-.4-.3-.1-.1-.3-.3-.4-.5l-1.5-2.3 2.4-3.4h-.7l-2 2.9c-.3.1-.5.2-.8.3-.3 0-.5.1-.8.1h-.8v-3.3h-.6v7.4h.6v-3.5h1.4c.2 0 .3-.1.5-.1l.3-.1zM97.3 151.8v6.8h-1.1v-6.8h-2.8v-1.1h6.7v1.1z"></path><path class="st2" d="M97.6 158.8h-1.7v-6.7h-2.8v-1.7h7.3v1.7h-2.8v6.7zm-1.1-.5h.5v-6.7h2.8v-.6h-6.2v.6h2.8v6.7zM102.7 153.6c.2.1.5.2.7.3.3 0 .5.1.8.1h1c.9 0 1.5.2 2 .6.5.4.7 1 .7 1.7 0 .5-.1.9-.3 1.2-.2.3-.4.5-.7.7-.3.2-.6.3-.9.3-.3.1-.6.1-1 .1h-3.7v-7.9h1.2v2.9zm2.7 3.8c.2 0 .3 0 .5-.1.2 0 .3-.1.5-.2.1-.1.3-.2.3-.4.1-.1.1-.3.1-.6 0-.2 0-.4-.1-.6-.1-.1-.2-.3-.4-.3-.1-.1-.3-.1-.5-.2-.2 0-.4-.1-.6-.1h-1c-.3 0-.5 0-.8-.1s-.5-.1-.7-.3v2.6h2.7zm3.6-6.7h1.1v7.9H109v-7.9z"></path><path class="st2" d="M110.4 158.8h-1.7v-8.4h1.7v8.4zm-1.1-.5h.6v-7.4h-.6v7.4zm-4 .5h-4v-8.4h1.7v3.1c.2.1.3.1.5.2.2 0 .5.1.7.1h1c.9 0 1.6.2 2.2.6.6.4.8 1.1.8 2 0 .5-.1 1-.3 1.3-.2.3-.4.6-.7.8-.3.2-.6.3-1 .4-.3-.1-.6-.1-.9-.1m-3.4-.5h3.4c.3 0 .6 0 .9-.1.3-.1.6-.2.8-.3.2-.1.4-.3.6-.6.1-.3.2-.6.2-1 0-.7-.2-1.2-.6-1.5-.4-.3-1.1-.5-1.9-.5h-1c-.3 0-.5 0-.8-.1-.3 0-.6-.1-.8-.3l-.1-.1V151h-.6v7.3zm3.5-.6h-2.9v-3.3l.4.2c.2.1.4.2.6.2h1.7c.2 0 .4 0 .6.1.2 0 .4.1.6.2.2.1.3.3.5.4.1.2.2.4.2.7 0 .3-.1.5-.2.7-.1.2-.3.3-.4.4-.2.1-.4.2-.6.2-.1.1-.3.2-.5.2m-2.4-.6h2.8c.1 0 .3-.1.4-.1l.3-.3c.1-.1.1-.2.1-.4s0-.3-.1-.4l-.3-.3c-.1-.1-.3-.1-.4-.2h-1.5c-.3 0-.5 0-.8-.1-.1 0-.3-.1-.4-.1v1.9zM121.2 150.7h1.1v7.9h-1.1v-6.1l-4.7 6.1h-1.1v-7.9h1.1v6.1z"></path><path class="st2" d="M122.6 158.8h-1.7v-5.6l-4.2 5.6h-1.6v-8.4h1.7v5.6l4.2-5.6h1.6v8.4zm-1.2-.5h.6v-7.4h-.8l-5 6.6v-6.6h-.6v7.4h.8l5-6.6v6.6zM124.5 151.7l.5-.5c.2-.2.4-.3.6-.4.2-.1.5-.2.7-.3.3-.1.6-.1 1-.1.5 0 1 .1 1.4.3.4.2.7.4.9.6.2.2.4.5.5.8.1.3.1.5.1.8 0 .4-.1.7-.2.9-.1.2-.3.4-.5.6.3.2.6.5.8.8.2.3.3.7.3 1.1 0 .3-.1.6-.2.9-.1.3-.3.6-.6.8-.3.2-.6.4-1 .6-.4.1-.9.2-1.5.2-.3 0-.6 0-1-.1l-.9-.3c-.3-.1-.6-.3-.9-.4-.3-.2-.5-.4-.7-.6l.7-1c.1.2.3.4.5.5.2.2.4.3.7.4.2.1.5.2.8.2.3.1.5.1.8.1.4 0 .7 0 1-.1.3-.1.5-.2.6-.3.2-.1.3-.3.3-.4.1-.2.1-.3.1-.5s0-.4-.1-.6c-.1-.1-.2-.3-.4-.3-.1-.1-.3-.1-.5-.2-.2 0-.4-.1-.6-.1h-1.3v-1.2h1.3c.4 0 .6-.1.9-.3.2-.2.3-.5.3-.8 0-.2-.1-.4-.2-.6-.1-.2-.2-.3-.4-.4-.2-.1-.4-.2-.6-.2-.2 0-.4-.1-.6-.1-.2 0-.5 0-.7.1-.2 0-.4.1-.5.2-.2.1-.3.2-.5.3l-.4.4-.5-.8z"></path><path class="st2" d="M127.4 159c-.3 0-.7 0-1-.1-.3-.1-.7-.2-1-.3-.3-.1-.6-.3-.9-.5-.3-.2-.5-.4-.8-.6l-.1-.2 1.1-1.4.2.3c.1.2.3.3.5.5.2.1.4.3.6.4.2.1.5.2.7.2.6.1 1.2.1 1.6 0 .2-.1.4-.1.6-.2l.3-.3c.1-.1.1-.3.1-.4 0-.2 0-.3-.1-.4l-.3-.3c-.1-.1-.3-.1-.4-.1h-2.1v-1.7h1.6c.3 0 .5-.1.7-.2.1-.1.2-.3.2-.6 0-.2 0-.3-.1-.4l-.3-.3c-.1-.1-.3-.1-.5-.2-.5-.1-.8-.1-1.1 0-.2 0-.3.1-.5.2s-.3.2-.4.3c-.1.1-.3.2-.4.4l-.2.2-1.1-1.3.2-.2c.2-.2.4-.4.6-.5.2-.2.4-.3.7-.4.2-.1.5-.2.8-.3.3-.1.6-.1 1-.1.6 0 1.1.1 1.5.3.4.2.7.4 1 .7.2.3.4.6.5.9.1.3.2.6.2.8 0 .4-.1.7-.2 1-.1.2-.2.3-.3.5l.6.6c.2.3.3.8.3 1.3 0 .3-.1.7-.2 1-.1.3-.3.6-.6.9-.3.3-.7.5-1.1.6-.8-.2-1.3-.1-1.9-.1m-3.1-1.7c.1.1.3.3.5.4.3.2.5.3.8.4l.9.3c.9.2 1.7.1 2.3-.1.4-.1.7-.3.9-.5.2-.2.4-.4.5-.7.1-.3.2-.5.2-.8 0-.4-.1-.7-.2-1-.2-.3-.4-.5-.7-.7l-.4-.2.3-.2c.2-.1.4-.3.5-.5.1-.2.1-.5.1-.8 0-.2 0-.4-.1-.7-.1-.2-.2-.5-.4-.7-.2-.2-.5-.4-.8-.6-.3-.2-.7-.2-1.2-.2-.3 0-.7 0-.9.1-.3.1-.5.1-.7.2-.2.1-.4.2-.6.4-.1.1-.2.2-.4.3l.4.5c.1-.1.2-.2.3-.2.2-.1.3-.2.5-.3.2-.1.4-.2.6-.2.4-.1.8-.1 1.3 0 .2.1.4.1.6.2.2.1.4.3.5.5.1.2.2.4.2.7 0 .4-.1.8-.4 1-.3.2-.6.3-1 .3h-1v.6h1c.2 0 .4 0 .6.1.2 0 .4.1.6.2.2.1.3.3.5.4.1.2.2.4.2.7 0 .2 0 .4-.1.6-.1.2-.2.4-.4.5-.2.1-.4.3-.7.3-.5.1-1.2.2-1.9 0-.3-.1-.6-.1-.8-.3-.3-.1-.5-.3-.7-.4l-.3-.3-.6.7zM136.4 158.6h-1.2v-7.9h1.2v3.3h.5c.2 0 .5 0 .8-.1.3 0 .5-.1.7-.3l2-3h1.4l-2.6 3.7 1.4 2.1c.1.2.3.4.4.5l.3.3c.1.1.2.1.3.1h.5v1.2h-.9c-.2 0-.3-.1-.5-.2s-.3-.2-.5-.4-.3-.4-.5-.7l-1.5-2.4c-.2.1-.4.1-.6.2s-.4 0-.6 0h-.7v3.6z"></path><path class="st2" d="M142.5 158.8H141.2c-.2 0-.4-.1-.6-.2-.2-.1-.4-.2-.6-.4-.2-.2-.4-.4-.6-.7l-1.4-2.2c-.1 0-.3.1-.4.1h-1v3.5H135v-8.4h1.7v3.3h.3c.2 0 .5 0 .7-.1.2 0 .4-.1.6-.2l2-3h2l-2.8 4 1.3 2c.1.2.2.3.3.4.1.1.2.2.3.2.1 0 .1.1.2.1h.8v1.6zm-4.2-4.2l1.6 2.6c.2.3.3.5.5.6.1.1.3.3.4.3.1.1.3.1.4.1h.6v-.6h-.3c-.1 0-.3-.1-.4-.2-.1-.1-.3-.2-.4-.3-.1-.1-.3-.3-.4-.5l-1.5-2.3 2.4-3.4h-.7l-2 2.9c-.3.1-.5.2-.8.3-.3 0-.5.1-.8.1h-.8v-3.3h-.6v7.4h.6v-3.5h1.4c.2 0 .3-.1.5-.1l.3-.1zM146.1 150.5h1.3l3.8 8h-1.3l-.5-1.2H147c-.4 0-.7 0-1 .1-.3.1-.5.1-.7.2-.2.1-.4.2-.5.3-.1.1-.2.2-.2.3l-.2.4h-1.2l3.4-7.1-.5-1zm2.8 5.7l-1.7-3.3-1.7 3.8c.1-.1.4-.2.7-.3.3-.1.8-.1 1.3-.1h1.4z"></path><path class="st2" d="M151.6 158.8h-1.9l-.5-1.2H147c-.3 0-.7 0-.9.1-.3 0-.5.1-.7.2-.2.1-.3.1-.4.2-.1.1-.2.1-.2.2l-.3.5h-1.8l3.6-7.3-.6-1.2h1.9l4 8.5zm-1.5-.5h.7l-3.5-7.5h-.7l.3.7-3.3 6.8h.7l.1-.2.3-.3c.1-.1.3-.2.5-.3.2-.1.5-.2.8-.2.3-.1.6-.1 1-.1h2.6l.5 1.1zm-5.5-.6l2.5-5.4 2.2 4.2h-1.9c-.5 0-.9 0-1.2.1-.4.1-.5.2-.6.3l-1 .8zm2.6-4.2l-1.2 2.6h.1c.3-.1.8-.1 1.4-.1h1l-1.3-2.5zM152.6 151.7l.5-.5c.2-.2.4-.3.6-.4.2-.1.5-.2.7-.3.3-.1.6-.1 1-.1.5 0 1 .1 1.4.3.4.2.7.4.9.6.2.2.4.5.5.8.1.3.1.5.1.8 0 .4-.1.7-.2.9-.1.2-.3.4-.5.6.3.2.6.5.8.8.2.3.3.7.3 1.1 0 .3-.1.6-.2.9-.1.3-.3.6-.6.8-.3.2-.6.4-1 .6-.4.1-.9.2-1.5.2-.3 0-.6 0-1-.1l-.9-.3c-.3-.1-.6-.3-.9-.4-.3-.2-.5-.4-.7-.6l.7-1c.1.2.3.4.5.5.2.2.4.3.7.4.2.1.5.2.8.2.3.1.5.1.8.1.4 0 .7 0 1-.1.3-.1.5-.2.6-.3.2-.1.3-.3.4-.4.1-.2.1-.3.1-.5s0-.4-.1-.6c-.1-.1-.2-.3-.4-.3-.1-.1-.3-.1-.5-.2-.2 0-.4-.1-.6-.1h-1.3v-1.2h1.3c.4 0 .6-.1.9-.3.2-.2.3-.5.3-.8 0-.2-.1-.4-.2-.6-.1-.2-.2-.3-.4-.4-.2-.1-.4-.2-.6-.2-.2 0-.4-.1-.6-.1-.2 0-.5 0-.7.1-.2 0-.4.1-.5.2-.2.1-.3.2-.5.3l-.4.4-.6-.8z"></path><path class="st2" d="M155.4 159c-.3 0-.7 0-1-.1-.3-.1-.7-.2-1-.3-.3-.1-.6-.3-.9-.5-.3-.2-.5-.4-.8-.6l-.1-.2 1.1-1.4.2.3c.1.2.3.3.5.5.2.1.4.3.6.4.2.1.5.2.7.2.6.1 1.2.1 1.6 0 .2-.1.4-.1.6-.2l.3-.3c.1-.1.1-.3.1-.4 0-.2 0-.3-.1-.4l-.3-.3c-.1-.1-.3-.1-.4-.1h-2.1v-1.7h1.6c.3 0 .5-.1.7-.2.1-.1.2-.3.2-.6 0-.2 0-.3-.1-.4l-.3-.3c-.1-.1-.3-.1-.5-.2-.5-.1-.8-.1-1.1 0-.2 0-.3.1-.5.2-.1.1-.3.2-.4.3-.1.1-.3.2-.4.4l-.2.2-1.1-1.3.2-.2c.2-.2.4-.4.6-.5.2-.2.4-.3.7-.4.2-.1.5-.2.8-.3.3-.1.6-.1 1-.1.6 0 1.1.1 1.5.3.4.2.7.4 1 .7.2.3.4.6.5.9.1.3.2.6.2.8 0 .4-.1.7-.2 1-.1.2-.2.3-.3.5l.6.6c.2.3.3.8.3 1.3 0 .3-.1.7-.2 1-.1.3-.3.6-.6.9-.3.3-.7.5-1.1.6-.7-.2-1.3-.1-1.9-.1m-3.1-1.7c.1.1.3.3.5.4.3.2.5.3.8.4l.9.3c.9.2 1.7.1 2.3-.1.4-.1.7-.3.9-.5.2-.2.4-.4.5-.7.1-.3.2-.5.2-.8 0-.4-.1-.7-.2-1-.2-.3-.4-.5-.7-.7l-.4-.2.3-.2c.2-.1.4-.3.5-.5.1-.2.1-.5.1-.8 0-.2 0-.4-.1-.7-.1-.2-.2-.5-.4-.7-.2-.2-.5-.4-.8-.6-.3-.2-.7-.2-1.2-.2-.3 0-.7 0-.9.1-.3.1-.5.1-.7.2-.2.1-.4.2-.6.4-.1.1-.2.2-.4.3l.4.5c.1-.1.2-.2.3-.2.2-.1.3-.2.5-.3.2-.1.4-.2.6-.2.4-.1.8-.1 1.3 0 .2.1.4.1.6.2.2.1.4.3.5.5.1.2.2.4.2.7 0 .4-.1.8-.4 1-.3.2-.6.3-1 .3h-1v.6h1c.2 0 .4 0 .6.1.2 0 .4.1.6.2.2.1.3.3.5.4.1.2.2.4.2.7 0 .2 0 .4-.1.6-.1.2-.2.4-.4.5-.2.1-.4.3-.7.3-.5.1-1.2.2-1.9 0-.3-.1-.6-.1-.8-.3-.3-.1-.5-.3-.7-.4-.1-.1-.2-.2-.4-.3l-.5.7zM162.5 150.5h1.3l3.8 8h-1.3l-.5-1.2h-2.4c-.4 0-.7 0-1 .1-.3.1-.5.1-.7.2-.2.1-.4.2-.5.3-.1.1-.2.2-.2.3l-.2.4h-1.3l3.4-7.1-.4-1zm2.7 5.7l-1.7-3.3-1.7 3.8c.1-.1.4-.2.7-.3.3-.1.8-.1 1.3-.1h1.4z"></path><path class="st2" d="M168 158.8h-1.9l-.5-1.2h-2.2c-.3 0-.7 0-.9.1-.3 0-.5.1-.7.2-.2.1-.3.1-.4.2-.1.1-.2.1-.2.2l-.3.5H159l3.6-7.3-.6-1.2h1.9l4.1 8.5zm-1.6-.5h.7l-3.5-7.5h-.7l.3.7-3.3 6.8h.7l.1-.2c.1-.1.2-.2.3-.4.1-.1.3-.2.5-.3.2-.1.5-.2.8-.2.3-.1.6-.1 1-.1h2.6l.5 1.2zm-5.4-.6l2.5-5.4 2.2 4.2h-1.9c-.5 0-.9 0-1.2.1-.4.1-.5.2-.6.3l-1 .8zm2.5-4.2l-1.2 2.6h.1c.4-.1.8-.1 1.4-.1h1l-1.3-2.5zM174.7 158.6l-2.4-3.4-2.6 3.4h-1.4l3.2-4.3-2.6-3.6h1.4l2 2.6 1.9-2.6h1.5l-2.7 3.6 3.1 4.3z"></path><path class="st2" d="M176.7 158.8h-2.1l-2.3-3.1-2.4 3.1h-2.1l3.4-4.6-2.8-3.9h2.1l1.8 2.5 1.8-2.5h2.1l-2.9 3.9 3.4 4.6zm-1.9-.5h.8l-3-4 2.5-3.3h-.8l-2.1 2.8-2.1-2.8h-.7l2.4 3.3-3 4h.8l2.6-3.5 2.6 3.5zM183.3 152.5c-.3-.3-.6-.5-1-.7-.4-.2-.8-.3-1.3-.3-.4 0-.8.1-1.2.2-.4.1-.7.4-1 .6-.3.3-.5.6-.7 1-.2.4-.2.8-.2 1.2 0 .4.1.8.3 1.2.2.4.4.7.7.9.3.3.6.5 1 .6.4.1.8.2 1.2.2.5 0 1-.1 1.4-.3.4-.2.8-.5 1.1-.9l.7 1c-.4.4-.9.8-1.4 1-.6.3-1.2.4-1.8.4-.6 0-1.2-.1-1.7-.3-.5-.2-1-.5-1.3-.9-.4-.4-.7-.8-.9-1.4-.2-.5-.3-1.1-.3-1.7 0-.6.1-1.1.3-1.6.2-.5.5-.9.9-1.3s.8-.6 1.4-.9c.5-.2 1.1-.3 1.6-.3.6 0 1.2.1 1.7.3.5.2 1 .5 1.4.9l-.9 1.1z"></path><path class="st2" d="M181 159c-.6 0-1.2-.1-1.8-.3-.5-.2-1-.6-1.4-1-.4-.4-.7-.9-1-1.4-.2-.5-.3-1.1-.3-1.8 0-.6.1-1.2.4-1.7.2-.5.6-1 1-1.4.4-.4.9-.7 1.4-.9 1.1-.4 2.4-.4 3.5 0 .5.2 1 .6 1.4 1l.2.2-1.1 1.3-.2-.2c-.3-.3-.6-.5-1-.6-.7-.3-1.6-.3-2.3 0-.3.1-.6.3-.9.6-.3.2-.5.5-.6.9-.1.3-.2.7-.2 1.1 0 .4.1.7.2 1.1.2.3.4.6.6.8l.9.6c.8.3 1.7.3 2.4-.1.4-.2.7-.5 1-.8l.2-.3 1 1.4-.1.2c-.4.5-.9.8-1.5 1.1-.4.1-1.1.2-1.8.2m.1-8.3c-.5 0-1 .1-1.5.3-.5.2-.9.5-1.3.8-.4.3-.7.7-.9 1.2-.2.5-.3 1-.3 1.5 0 .6.1 1.1.3 1.6.2.5.5.9.8 1.3.4.4.8.6 1.3.8 1 .4 2.3.4 3.3-.1.5-.2.9-.5 1.2-.8l-.4-.5c-.3.3-.6.5-.9.7-.8.4-1.9.5-2.8.1-.4-.2-.8-.4-1.1-.7-.3-.3-.6-.6-.8-1-.2-.4-.3-.8-.3-1.3s.1-.9.3-1.3c.2-.4.4-.8.7-1 .3-.3.7-.5 1.1-.7.8-.3 1.9-.3 2.7 0 .3.1.6.3.9.6l.4-.5c-.3-.3-.7-.5-1.1-.7-.6-.2-1.1-.3-1.6-.3M189.1 151.8v6.8h-1.2v-6.8h-2.8v-1.1h6.7v1.1z"></path><path class="st2" d="M189.3 158.8h-1.7v-6.7h-2.8v-1.7h7.3v1.7h-2.8v6.7zm-1.1-.5h.6v-6.7h2.8v-.6h-6.2v.6h2.8v6.7zM195.4 150.5h1.3l3.8 8h-1.3l-.5-1.2h-2.4c-.4 0-.7 0-1 .1-.3.1-.5.1-.7.2-.2.1-.4.2-.5.3-.1.1-.2.2-.2.3l-.2.4h-1.2l3.4-7.1-.5-1zm2.7 5.7l-1.7-3.3-1.7 3.8c.1-.1.4-.2.7-.3.3-.1.8-.1 1.3-.1h1.4z"></path><path class="st2" d="M200.9 158.8H199l-.5-1.2h-2.2c-.3 0-.7 0-.9.1-.3 0-.5.1-.7.2-.2.1-.3.1-.4.2-.1.1-.2.1-.2.2l-.3.5H192l3.6-7.3-.6-1.2h1.9l4 8.5zm-1.6-.5h.7l-3.5-7.5h-.7l.3.7-3.3 6.8h.7l.1-.2c.1-.1.2-.2.3-.4.1-.1.3-.2.5-.3.2-.1.5-.2.8-.2.3-.1.6-.1 1-.1h2.6l.5 1.2zm-5.4-.6l2.5-5.4 2.2 4.2h-1.9c-.5 0-.9 0-1.2.1-.4.1-.5.2-.6.3l-1 .8zm2.5-4.2l-1.2 2.6h.1c.3-.1.8-.1 1.4-.1h1l-1.3-2.5zM203.1 158.6h-1.2v-7.9h1.2v3.2c.2-.1.3-.1.5-.2h1c.2 0 .4.1.7.1.3 0 .5.1.7.1h1.1c.2 0 .4-.1.5-.2v-3.1h1.2v7.9h-1.2v-3.7c-.2.1-.3.1-.5.2H206c-.2 0-.5-.1-.7-.1-.3 0-.5-.1-.7-.1h-1c-.2 0-.3.1-.5.2v3.6z"></path><path class="st2" d="M209.1 158.8h-1.7v-3.6h-.2c-.4.1-.7.1-1.2 0-.2 0-.5 0-.7-.1l-.7-.1h-1c-.1 0-.2 0-.3.1v3.6h-1.7v-8.4h1.7v3.1h.2c.2 0 .4-.1.6-.1h.5l.7.1c.3 0 .5.1.7.1.4 0 .7.1 1.1 0 .1 0 .2 0 .3-.1v-3.1h1.7v8.5zm-1.1-.5h.6v-7.4h-.6v3l-.2.1c-.2.1-.4.1-.6.2-.4.1-.7.1-1.2 0-.2 0-.5 0-.8-.1l-.7-.1h-1c-.1 0-.3.1-.4.1l-.4.2v-3.4h-.6v7.4h.6v-3.4l.2-.1c.2-.1.4-.1.6-.2.2 0 .4-.1.6-.1h.5l.7.1c.3 0 .5.1.7.1.4 0 .7.1 1.1 0 .2 0 .3-.1.5-.1l.4-.2v3.9zM213.2 150.5h1.3l3.8 8H217l-.5-1.2h-2.4c-.4 0-.7 0-1 .1-.3.1-.5.1-.7.2-.2.1-.4.2-.5.3-.1.1-.2.2-.2.3l-.2.4h-1.2l3.4-7.1-.5-1zm2.8 5.7l-1.7-3.3-1.7 3.8c.1-.1.4-.2.7-.3.3-.1.8-.1 1.3-.1h1.4z"></path><path class="st2" d="M218.7 158.8h-1.9l-.5-1.2h-2.2c-.3 0-.7 0-.9.1-.3 0-.5.1-.7.2-.2.1-.3.1-.4.2-.1.1-.2.1-.2.2l-.3.5h-1.8l3.6-7.3-.6-1.2h1.9l4 8.5zm-1.5-.5h.7l-3.5-7.5h-.7l.3.7-3.3 6.8h.7l.1-.2.3-.3c.1-.1.3-.2.5-.3.2-.1.5-.2.8-.2.3-.1.6-.1 1-.1h2.6l.5 1.1zm-5.5-.6l2.5-5.4 2.2 4.2h-1.9c-.5 0-.9 0-1.2.1-.4.1-.5.2-.6.3l-1 .8zm2.6-4.2l-1.2 2.6h.1c.4-.1.8-.1 1.4-.1h1l-1.3-2.5z"></path></svg> 