<?xml version="1.0" encoding="UTF-8"?> <svg xmlns="http://www.w3.org/2000/svg" id="Capa_1" width="501.7" height="501.7" viewBox="0 0 501.7 501.7"><style>.st0{fill:#b7b7b7}.st1{fill:#4d6da5}</style><path class="st0" d="M458.8 0h-368c-22.1 0-40 17.9-40 40v124.7L5.2 210.3c-1.5 1.5-2.3 3.5-2.3 5.7v280h16V219.3l32-32V208c0 4.4 3.6 8 8 8h95c-3.6 13.8-16.1 24-31 24h-32c-4.4 0-8 3.6-8 8 0 26.9-21.1 48-48 48v16c5.6 0 10.9-.7 16-2v114c0 22.1 17.9 40 40 40h24v32h16v-32h128v16c0 2.1.8 4.2 2.3 5.7l16 16 11.3-11.3-13.7-13.7v-49.4l16-16V448h16V228c0-6.6 5.4-12 12-12s12 5.4 12 12v180h16v-68c0-6.6 5.4-12 12-12s12 5.4 12 12v68h16v-68c0-6.6 5.4-12 12-12s12 5.4 12 12v68h16v-68c0-6.6 5.4-12 12-12s12 5.4 12 12v156h16v-32.8c18.2-3.7 32-19.9 32-39.2V40c0-22.1-17.9-40-40-40zm24 424c0 10.4-6.7 19.2-16 22.5V340c0-15.4-12.6-28-28-28-7.8 0-14.9 3.3-20 8.5-5.1-5.2-12.2-8.5-20-8.5s-14.9 3.3-20 8.5c-5.1-5.2-12.2-8.5-20-8.5-4.3 0-8.3 1.1-12 2.8V228c0-15.4-12.6-28-28-28s-28 12.6-28 28v160.7l-29.7 29.7c-1.5 1.5-2.3 3.5-2.3 5.7v24h-168c-13.2 0-24-10.8-24-24V303.6c17.1-9.7 29.1-27 31.5-47.6h24.5c26.5 0 48-21.5 48-48 0-4.4-3.6-8-8-8h-96V40c0-13.2 10.8-24 24-24h368c13.2 0 24 10.8 24 24v384z"></path><path class="st1" d="M226.8 32h-120c-4.4 0-8 3.6-8 8v40c0 4.4 3.6 8 8 8h120c4.4 0 8-3.6 8-8V40c0-4.4-3.6-8-8-8zm-8 40h-104V48h104v24z"></path><path class="st0" d="M442.8 32h-120c-4.4 0-8 3.6-8 8v40c0 4.4 3.6 8 8 8h120c4.4 0 8-3.6 8-8V40c0-4.4-3.6-8-8-8zm-8 40h-104V48h104v24zM226.8 272h-120c-4.4 0-8 3.6-8 8v40c0 4.4 3.6 8 8 8h120c4.4 0 8-3.6 8-8v-40c0-4.4-3.6-8-8-8zm-8 40h-104v-24h104v24zM266.8 32h16v152h-16z"></path><path class="st1" d="M98.8 104h88v16h-88zM210.8 104h24v16h-24zM98.8 136h88v16h-88zM210.8 136h24v16h-24zM98.8 168h88v16h-88zM210.8 168h24v16h-24zM210.8 200h24v16h-24zM210.8 232h24v16h-24z"></path><path class="st0" d="M98.8 344h88v16h-88zM210.8 344h24v16h-24zM98.8 376h88v16h-88zM210.8 376h24v16h-24zM98.8 408h88v16h-88zM210.8 408h24v16h-24zM314.8 104h88v16h-88zM426.8 104h24v16h-24zM314.8 136h88v16h-88zM426.8 136h24v16h-24zM314.8 168h88v16h-88zM426.8 168h24v16h-24zM362.8 200h40v16h-40zM426.8 200h24v16h-24zM362.8 232h40v16h-40zM426.8 232h24v16h-24zM362.8 264h40v16h-40zM426.8 264h24v16h-24z"></path></svg> 