<?xml version="1.0" encoding="UTF-8"?> <svg xmlns="http://www.w3.org/2000/svg" id="Слой_1" width="368" height="480" viewBox="0 0 368 480"><style>.st0{fill:#4d6da5}.st1{fill:#b7b7b7}</style><g id="Check_list"><path class="st0" d="M64 152v80c0 3 1.7 5.7 4.3 7.1l64 33.1c1.1.6 2.4.9 3.7.9s2.5-.3 3.6-.9l64-32.3c2.7-1.4 4.4-4.1 4.4-7.1V152c0-3-1.7-5.8-4.4-7.2l-64-32c-2.3-1.1-4.9-1.1-7.2 0l-64 32c-2.7 1.4-4.4 4.2-4.4 7.2zm16 12.9l16 8V200h16v-19.1l16 8V252l-48-24.8v-62.3zm64 87.2v-63.2l48-24v62.9l-48 24.3zm-8-123.2l46.1 23.1-46.1 23.1-14.1-7.1 17.7-8.8-7.2-14.3-28.4 14.2-14.1-7.1 46.1-23.1z"></path><path class="st1" d="M232 168h64c4.4 0 8-3.6 8-8s-3.6-8-8-8h-64c-4.4 0-8 3.6-8 8s3.6 8 8 8zM232 200h64c4.4 0 8-3.6 8-8s-3.6-8-8-8h-64c-4.4 0-8 3.6-8 8s3.6 8 8 8zM232 232h64c4.4 0 8-3.6 8-8s-3.6-8-8-8h-64c-4.4 0-8 3.6-8 8s3.6 8 8 8z"></path><path class="st1" d="M360 32h-96v-8c0-4.4-3.6-8-8-8h-44.3C202.9.7 183.3-4.5 168 4.3c-4.9 2.8-8.9 6.9-11.7 11.7H112c-4.4 0-8 3.6-8 8v8H8c-4.4 0-8 3.6-8 8v432c0 4.4 3.6 8 8 8h352c4.4 0 8-3.6 8-8V40c0-4.4-3.6-8-8-8zm-240 0h41.4c3.4 0 6.5-2.2 7.6-5.4 2.9-8.3 12-12.6 20.3-9.7 4.5 1.6 8.1 5.2 9.7 9.7 1.1 3.2 4.1 5.4 7.6 5.4H248v48H120V32zm-8 64h144c4.4 0 8-3.6 8-8v-8h56v288h-56c-4.4 0-8 3.6-8 8v56H48V80h56v8c0 4.4 3.6 8 8 8zm196.7 288L272 420.7V384h36.7zm43.3 80H16V48h88v16H40c-4.4 0-8 3.6-8 8v368c0 4.4 3.6 8 8 8h224c2.1 0 4.2-.8 5.7-2.3l64-64c1.5-1.5 2.3-3.5 2.3-5.7V72c0-4.4-3.6-8-8-8h-64V48h88v416z"></path><path class="st0" d="M163.2 321.6L144 336v-8c0-4.4-3.6-8-8-8H72c-4.4 0-8 3.6-8 8v64c0 4.4 3.6 8 8 8h64c4.4 0 8-3.6 8-8v-36l28.8-21.6c3.5-2.7 4.2-7.7 1.6-11.2-2.7-3.5-7.7-4.2-11.2-1.6zM128 384H80v-48h48v12l-23.2 17.4-11.1-11.1c-3.1-3.2-8.1-3.3-11.3-.2-3.2 3.1-3.3 8.1-.2 11.3l.2.2 16 16c2.8 2.8 7.3 3.1 10.5.7L128 368v16z"></path><path class="st1" d="M192 344h8c4.4 0 8-3.6 8-8s-3.6-8-8-8h-8c-4.4 0-8 3.6-8 8s3.6 8 8 8zM224 344h64c4.4 0 8-3.6 8-8s-3.6-8-8-8h-64c-4.4 0-8 3.6-8 8s3.6 8 8 8zM240 352h-48c-4.4 0-8 3.6-8 8s3.6 8 8 8h48c4.4 0 8-3.6 8-8s-3.6-8-8-8zM224 384h-32c-4.4 0-8 3.6-8 8s3.6 8 8 8h32c4.4 0 8-3.6 8-8s-3.6-8-8-8z"></path></g></svg> 