<?xml version="1.0" encoding="UTF-8"?> <svg xmlns="http://www.w3.org/2000/svg" id="Слой_1" width="480" height="480" viewBox="0 0 480 480"><style>.st0{fill:#b7b7b7}</style><g id="Product"><path class="st0" d="M120 416h-9.1c5.9-9.1 9.1-19.7 9.1-30.5v-20.1c0-4.4-.7-8.8-2.2-13l-24.7-71.9c-2.2-8-8.3-14.4-16.3-16.8l15.1-56.3c2.7-9.8-1.1-20.2-9.5-25.9-2.2-1.6-4.6-2.7-7.2-3.4-2.1-.6-4.2-.9-6.4-.9-10.7-.1-20.2 7-23.1 17.4L3 325.6c-2.1 6.7-2.5 13.8-1.1 20.6l12.3 47.9c1.2 4.5 1.8 9.2 1.8 13.9v7.9H8c-4.4 0-8 3.6-8 8v48c0 4.4 3.6 8 8 8h112c4.4 0 8-3.6 8-8v-48c0-4.3-3.6-7.9-8-7.9zm-90.3-25.8l-12.2-47.5c-.8-4-.6-8.2.7-12.1L61 198.9c1.1-4.2 5.5-6.7 9.7-5.6h.1c.9.2 1.7.6 2.4 1.2 2.8 1.9 4.1 5.4 3.2 8.6l-16.5 61.7c-8.6 3.9-14 12.4-14 21.8 0 2.1.2 4.2.8 6.2l14.5 54.1c1.1 4.3 5.5 6.8 9.8 5.7 4.3-1.1 6.8-5.5 5.7-9.8l-14.5-54.3c-.2-.6-.2-1.3-.2-1.9 0-3.4 2.1-6.4 5.3-7.4.2-.1.9-.3 1.1-.3 4.4-.9 8.6 2 9.5 6.3l24.9 72.5c.9 2.5 1.3 5.1 1.3 7.8v20.1c0 7.9-2.3 15.6-6.7 22.2l-5.6 8.3H32v-7.9c0-6.2-.8-12.2-2.3-18zM112 464H16v-32h96v32zM352 424v48c0 4.4 3.6 8 8 8h112c4.4 0 8-3.6 8-8v-48c0-4.4-3.6-8-8-8h-8v-7.9c0-4.7.6-9.4 1.8-14l12.3-47.9c1.4-6.9 1.1-14-1.1-20.6l-42.7-131.2c-2.9-10.3-12.3-17.4-23-17.4-2.2 0-4.3.3-6.4.9-2.6.7-5 1.9-7.2 3.4-8.4 5.7-12.2 16.1-9.5 25.9l15 56.3c-8 2.4-14.1 8.8-16.3 16.8l-24.7 71.9c-1.4 4.2-2.2 8.6-2.2 13v20.1c0 10.8 3.2 21.5 9.1 30.5H360c-4.4.2-8 3.8-8 8.2zm96-15.9v7.9h-59.7l-5.6-8.3c-4.4-6.6-6.7-14.3-6.7-22.2v-20.1c0-2.7.4-5.3 1.3-7.8l24.9-72.5c.9-4.4 5.1-7.2 9.5-6.3.1 0 .9.3 1.1.3 3.2 1.1 5.3 4.1 5.3 7.4 0 .6-.1 1.3-.2 1.9l-14.5 54.3c-1.1 4.3 1.4 8.7 5.7 9.8 4.3 1.1 8.7-1.4 9.8-5.7l14.5-54.1c.6-2 .8-4.1.8-6.2 0-9.4-5.4-17.9-14-21.8L403.7 203c-.9-3.3.4-6.7 3.2-8.6.7-.5 1.6-.9 2.4-1.2 4.2-1.2 8.6 1.3 9.7 5.5v.1l42.8 131.6c1.3 3.9 1.5 8.1.7 12.1L450.3 390c-1.5 6-2.3 12-2.3 18.1zM368 432h96v32h-96v-32z"></path><path d="M371.2 56.7l-128-56c-2-.9-4.4-.9-6.4 0l-128 56c-2.9 1.3-4.8 4.1-4.8 7.3v160c0 3 1.7 5.8 4.4 7.1l128 65.1c1.1.6 2.4.9 3.6.9 1.2 0 2.5-.3 3.6-.8l128-64.3c2.7-1.4 4.4-4.1 4.4-7.2V64c0-3.2-1.9-6.1-4.8-7.3zM240 16.7L348 64l-108 47.3L211.9 99l42.7-18.7c4-1.8 5.9-6.5 4.1-10.5-.8-1.8-2.3-3.3-4.1-4.1l-34.3-15c-2-.9-4.4-.9-6.4 0l-56.2 24.6L132 64l108-47.3zm-72 80.5l16 7V139l-16-8V97.2zm9.6-13.2l39.5-17.3 14.3 6.2L192 90.2 177.6 84zM120 76.2l32 14V136c0 3 1.7 5.8 4.4 7.2l32 16c4 2 8.8.4 10.7-3.6.6-1.1.8-2.3.8-3.6v-40.8l32 14v150.9l-112-57V76.2h.1zm128 199.9V125.2l112-49v143.6l-112 56.3z" fill="#4d6da5"></path><path class="st0" d="M292.5 217.9L260.4 234c-3.9 2-5.5 6.8-3.5 10.7s6.8 5.5 10.7 3.5l32.1-16.1c3.9-2 5.5-6.8 3.5-10.7s-6.8-5.5-10.7-3.5zM264 217.1c1.2 0 2.5-.3 3.6-.8l31.6-15.9c3.9-2 5.5-6.8 3.5-10.7s-6.8-5.5-10.7-3.5L260.4 202c-3.9 2-5.5 6.8-3.5 10.7 1.3 2.7 4.1 4.4 7.1 4.4z"></path></g></svg> 