<?xml version="1.0" encoding="utf-8"?><svg xmlns="http://www.w3.org/2000/svg" xmlns:xlink="http://www.w3.org/1999/xlink"><symbol viewBox="0 0 498 498" id="search" xmlns="http://www.w3.org/2000/svg"><path d="M488 459.2L370.2 341.4c29.2-35.6 46.8-81.2 46.8-130.9C417 96.5 324.5 4 210.5 4 96.4 4 4 96.5 4 210.5S96.4 417 210.5 417c49.7 0 95.2-17.5 130.8-46.7L459.1 488c8 8 20.9 8 28.9 0 8-7.9 8-20.9 0-28.8zm-277.5-83.3C119.2 375.9 45 301.7 45 210.5S119.2 45 210.5 45C301.7 45 376 119.3 376 210.5s-74.3 165.4-165.5 165.4z"/></symbol></svg>