<svg version="1.1" id="Capa_1" xmlns="http://www.w3.org/2000/svg" x="0" y="0" width="482.9" height="482.9" xml:space="preserve"><style>.st0{fill:#b7b7b7}</style><path class="st0" d="M239.7 253.2h3.2c29.2-.5 52.9-10.5 70.4-29.7 38.4-42.2 32-114.7 31.3-121.6-2.5-51.9-27.6-76.7-48.4-88.3C280.7 5.1 262.7.4 242.5 0H240.8c-11.1 0-32.8 1.8-53.7 13.3-21 11.6-46.5 36.4-49 88.7-.7 6.9-7.1 79.3 31.3 121.6 17.4 19.1 41.1 29.2 70.3 29.6zm-75-148.8c0-.3.1-.6.1-.8 3.3-69.8 54.1-77.3 75.9-77.3H241.9c27 .6 72.8 11.3 75.9 77.3 0 .3 0 .6.1.8.1.7 7.1 66.9-24.7 101.7-12.6 13.8-29.3 20.6-51.4 20.8h-1c-22-.2-38.8-7-51.3-20.8-31.6-34.6-24.9-101.1-24.8-101.7z"/><path class="st0" d="M446.4 373.4v-.3c0-.8-.1-1.6-.1-2.4-.6-19.3-1.9-64.3-45.2-78.7-.3-.1-.7-.2-1-.3-45-11.2-82.4-36.5-82.8-36.8-6.1-4.2-14.5-2.7-18.8 3.2s-2.8 14.1 3.3 18.3c1.7 1.2 41.4 28.1 91.1 40.6 23.3 8.1 25.9 32.3 26.6 54.5 0 .9 0 1.7.1 2.4.1 8.8-.5 22.3-2.1 30.1-16.2 9-79.6 39.9-176 39.9-96 0-159.8-31-176.1-40-1.6-7.8-2.3-21.3-2.1-30.1 0-.8.1-1.6.1-2.4.7-22.2 3.3-46.4 26.6-54.5 49.7-12.5 89.4-39.5 91.1-40.6 6.1-4.2 7.6-12.4 3.3-18.3s-12.7-7.4-18.8-3.2c-.4.3-37.6 25.6-82.8 36.8-.4.1-.7.2-1 .3-43.3 14.5-44.6 59.6-45.2 78.7 0 .9 0 1.7-.1 2.4v.3c-.1 5.1-.2 31 5.1 44.1 1 2.5 2.8 4.7 5.2 6.1 3 1.9 74.8 46.5 194.8 46.5s191.8-44.7 194.8-46.5c2.3-1.5 4.2-3.6 5.2-6.1 5-13 4.9-39 4.8-44z"/></svg>